<svg width="29" height="28" viewBox="0 0 29 28" fill="none" xmlns="http://www.w3.org/2000/svg">
<path d="M28.1523 12.2218C27.4077 11.2507 26.2765 10.6939 25.0488 10.6939H16.9859L18.6018 6.40011C18.6285 6.32719 18.6485 6.25097 18.6585 6.17308C19.2166 2.1345 16.5961 0.405924 15.1334 0.0563485C14.6987 -0.0463987 14.2472 0.129268 13.999 0.497179L5.75954 12.7374C5.64292 12.9114 5.57962 13.1169 5.57962 13.3274V24.6296C5.57962 26.4741 7.08728 27.9738 8.9414 27.9738H22.4285C24.1811 27.9738 25.7304 26.7989 26.1935 25.1168L28.8156 15.6028C29.1404 14.4262 28.8989 13.1932 28.1559 12.2221L28.1523 12.2218ZM26.7563 15.0424L24.1342 24.5581C23.9243 25.3204 23.2213 25.854 22.4266 25.854H8.93951C8.26151 25.854 7.71008 25.3055 7.71008 24.631V13.6504L15.2782 2.40795C15.9279 2.81562 16.8025 3.74864 16.5593 5.77207L14.4486 11.3835C14.3253 11.7083 14.372 12.0746 14.5719 12.3596C14.7718 12.6447 15.0983 12.8153 15.4482 12.8153H25.0489C25.6053 12.8153 26.1184 13.0672 26.4566 13.508C26.7947 13.9489 26.9029 14.5071 26.7563 15.0424ZM2.17923 13.3271V26.9127C2.17923 27.4993 1.70278 27.9733 1.11305 27.9733C0.523328 27.9733 0.046875 27.4993 0.046875 26.9127V13.3271C0.046875 12.7405 0.523328 12.2665 1.11305 12.2665C1.70278 12.2665 2.17923 12.7405 2.17923 13.3271Z" fill="#BCBDBD"/>
</svg>
