<svg width="25" height="15" viewBox="0 0 25 15" fill="none" xmlns="http://www.w3.org/2000/svg">
<path d="M24.3896 6.26613V1.81133C24.3896 1.42493 24.076 1.11133 23.6896 1.11133H19.2348V2.51133H21.9998L21.4132 3.09793C20.919 3.59073 20.3002 3.94073 19.624 4.11013L19.337 4.18153C17.811 4.56373 16.6826 5.81673 16.46 7.37213L16.3144 8.39413L16.1688 9.41613C16.0274 10.4059 15.3092 11.2025 14.3362 11.4461L14.0506 11.5175C13.1266 11.7485 12.2824 12.2259 11.6104 12.8979L12.6016 13.8877C13.0944 13.3935 13.7118 13.0435 14.3908 12.8741L14.675 12.8027C16.201 12.4219 17.3294 11.1689 17.5534 9.61353L17.699 8.59153L17.846 7.57093C17.9874 6.57973 18.7056 5.78313 19.6772 5.53953L19.9642 5.46813C20.8854 5.23713 21.7296 4.76113 22.403 4.08773L22.9896 3.50113V6.26613H24.3896Z" fill="white"/>
<path d="M13.3896 6.26613V1.81133C13.3896 1.42493 13.076 1.11133 12.6896 1.11133H8.23475V2.51133H10.9998L10.4132 3.09793C9.91895 3.59073 9.30015 3.94073 8.62395 4.11013L8.33695 4.18153C6.81095 4.56373 5.68255 5.81673 5.45995 7.37213L5.31435 8.39413L5.16875 9.41613C5.02735 10.4059 4.30915 11.2025 3.33615 11.4461L3.05055 11.5175C2.12655 11.7485 1.28235 12.2259 0.610352 12.8979L1.60155 13.8877C2.09435 13.3935 2.71175 13.0435 3.39075 12.8741L3.67495 12.8027C5.20095 12.4219 6.32935 11.1689 6.55335 9.61353L6.69895 8.59153L6.84595 7.57093C6.98735 6.57973 7.70555 5.78313 8.67715 5.53953L8.96415 5.46813C9.88535 5.23713 10.7296 4.76113 11.403 4.08773L11.9896 3.50113V6.26613H13.3896Z" fill="white"/>
</svg>
