<svg width="29" height="28" viewBox="0 0 29 28" fill="none" xmlns="http://www.w3.org/2000/svg">
<path d="M0.851593 15.7792C1.59625 16.7503 2.72738 17.3071 3.95515 17.3071H12.018L10.4021 21.6009C10.3754 21.6738 10.3554 21.75 10.3454 21.8279C9.78734 25.8665 12.4078 27.5951 13.8705 27.9446C14.3052 28.0474 14.7567 27.8717 15.005 27.5038L23.2444 15.2636C23.361 15.0895 23.4243 14.8841 23.4243 14.6736V3.37136C23.4243 1.52688 21.9166 0.0271416 20.0625 0.0271416H6.57537C4.82283 0.0271416 3.27355 1.20208 2.81045 2.88416L0.188335 12.3982C-0.136515 13.5748 0.105038 14.8078 0.84804 15.7789L0.851593 15.7792ZM2.2476 12.9586L4.86971 3.44286C5.07962 2.68054 5.78262 2.14693 6.57726 2.14693H20.0644C20.7424 2.14693 21.2938 2.69547 21.2938 3.36993V14.3506L13.7257 25.593C13.076 25.1854 12.2014 24.2523 12.4446 22.2289L14.5553 16.6175C14.6786 16.2926 14.6319 15.9264 14.432 15.6414C14.2321 15.3563 13.9056 15.1856 13.5557 15.1856H3.95504C3.39862 15.1856 2.88554 14.9337 2.54734 14.4929C2.20917 14.0521 2.10099 13.4939 2.2476 12.9586ZM26.8247 14.6738V1.08832C26.8247 0.501675 27.3011 0.0277119 27.8909 0.0277119C28.4806 0.0277119 28.957 0.501675 28.957 1.08832V14.6738C28.957 15.2605 28.4806 15.7344 27.8909 15.7344C27.3011 15.7344 26.8247 15.2605 26.8247 14.6738Z" fill="#BCBDBD"/>
</svg>
